<?xml version="1.0" encoding="utf-8"?>
<!-- Generator: Adobe Illustrator 24.0.1, SVG Export Plug-In . SVG Version: 6.00 Build 0)  -->
<svg version="1.1" id="Слой_1" xmlns="http://www.w3.org/2000/svg" xmlns:xlink="http://www.w3.org/1999/xlink" x="0px" y="0px"
	 viewBox="0 0 592 115.5" style="enable-background:new 0 0 592 115.5;" xml:space="preserve">
<style type="text/css">
	.st0{fill-rule:evenodd;clip-rule:evenodd;fill:#008F3C;}
	.st1{fill:#008F3C;}
	.st2{opacity:0.1;clip-path:url(#SVGID_2_);}
</style>
<title>divano-logo</title>
<g>
	<path class="st0" d="M485.8,34.7c7.7-5.2,13.4-11.6,26.4-11.6c6.3,0,11.6,7.8,11.6,13.2c0,3.6-12.6,7.3-16.5,8.3V38
		c0-3.9-2.7-6.6-6.6-6.6c-1.9,0-14.8,10.2-14.8,14.9v3.3c0,10.1,42.9,27.8,42.9,47.9v5h-26.4V90.8c0-11.2-9.9-25.3-16.5-29.7v41.3
		h-19.8V24.8h19.8V34.7L485.8,34.7z"/>
	<path class="st0" d="M215.1,64.4c0-17.8,25.7-33.4,29.7-44.6c9,2.4,27.1,16,28.1,28.1h-18.2v-5c0-5.4-5-13.2-8.2-13.2
		c-6.3,0-11.6,17-11.6,26.4c5.2-0.4,5.9-1.7,11.6-1.7h9.9c10.8,0,14.4,7.8,18.2,14.8h-18.2c-0.6-7-2.4-9.9-9.9-9.9
		c-5.7,0-6.4,1.2-11.6,1.6c8.5,16,11.6,13.1,11.6,38c5.6-3,11.6-8.1,11.6-16.5c0-3.5-0.6-2.2-1.6-6.6h18.2
		c-9.6,20.1-11.8,24-36.3,29.7v-5c0-14.8-23.1-12.5-23.1-29.7V64.4L215.1,64.4z"/>
	<path class="st0" d="M418.4,49.5c0-10.1,0.8-26.4,9.9-26.4c6.5,0,8.3,8.2,8.3,14.8v8.3c0,7.8-14.8,10.7-18.2,23.1
		c7.3-0.6,7.2-3.3,11.5-3.3c2,0,5,3.4,5,6.6v6.6c0,16.9-23.8,9.4-36.3,33c8-2.1,6-6.2,12.5-8.9c5.7-2.4,13.8-0.3,20.4-1.1
		c10.1-1.1,24.8-6.6,24.8-18.1v-5c0-10.1-9.8-16.2-18.2-18.2c5.7-8.5,16.5-7.3,16.5-19.8v-1.6c0-9.9-21.9-24.8-24.8-24.8
		c-1.6,0-28.1,14.1-28.1,24.8C401.9,45.4,413.3,47.1,418.4,49.5L418.4,49.5z"/>
	<g>
		<path class="st0" d="M356.4,56.1c5.2-0.4,5.9-1.7,11.5-1.7h9.9c10.8,0,14.4,7.8,18.2,14.8h-18.2c-0.6-7-2.4-9.9-9.9-9.9
			c-5.7,0-6.4,1.2-11.5,1.6c8.5,16,11.5,13.1,11.5,38c4.7-2.5,11.6-8.1,11.6-14.8c0-4.5-0.8-4.6-1.6-8.3H396
			c-9.6,20-11.9,24-36.3,29.7v-5c0-14.8-23.1-12.5-23.1-29.7v-6.6c0-11.2,28.4-44.6,31.3-44.6c4.1,0,25.5,16.8,26.4,28.1h-18.2v-5
			c0-5.4-5-13.2-8.3-13.2C361.7,29.7,356.4,46.7,356.4,56.1L356.4,56.1z"/>
		<path class="st0" d="M369.6,6.6c0-1.4,5.2-6.6,6.6-6.6c1.1,0,6.2,5.2,8.3,6.6c-1.2,1.8-6,8.3-8.3,8.3
			C374.4,14.9,369.6,10,369.6,6.6L369.6,6.6z"/>
		<path class="st0" d="M349.8,6.6c0-1.4,5.2-6.6,6.6-6.6c1.1,0,6.2,5.2,8.2,6.6c-1.2,1.8-6,8.3-8.2,8.3
			C354.6,14.9,349.8,10,349.8,6.6L349.8,6.6z"/>
	</g>
	<path class="st1" d="M572.2,24.8v4.9c0,6.7-38,33.8-38,52.8v13.2c0,3.8,2.7,6.6,6.6,6.6c16.7,0,22.1-14.1,31.4-16.5v16.5H592V24.8
		H572.2z M559,82.5h-5c-0.9-3.7-1.7-3.8-1.7-8.2v-5c0-9.3,14.6-23.7,19.8-29.7c0,9.3-0.1,18.7,0,28.1
		C572.3,80.3,571.4,82.5,559,82.5z"/>
	<path class="st1" d="M172.5,51.2V29.7h5c6.7,0,8.9,2.6,11.6,6.6l0.6,13.7l20.8-25.3h-57.8v77.6h57.8
		C210.5,76.5,193.5,56.1,172.5,51.2z M187.4,90.8c0,3.9-2.7,6.6-6.6,6.6h-8.2V56.1c6.9,3.7,14.9,11.5,14.9,21.5V90.8z"/>
	<path class="st1" d="M329.9,16.5c-21.4,0-44.6,17.9-44.6,41.3v44.6h19.8v-38c8.2-2.2,33-27.5,33-37.9
		C338.2,20.4,335.8,16.5,329.9,16.5z M318.3,39.6c0,4.4-9.7,15.8-13.2,18.2c0-14.1,0.2-28.6,13.2-29.7V39.6z"/>
	<g>
		<g>
			
				<image style="overflow:visible;opacity:0.4;" width="1022" height="849" xlink:href="3E9C89C04377A034.png"  transform="matrix(0.1176 0 0 0.1176 0 14.5442)">
			</image>
			<path class="st0" d="M25.8,41l-0.2,0.2l-0.2,0.2l-0.2,0.2L24.8,42l-0.2,0.2l-0.2,0.2l-0.2,0.2l-0.2,0.2l-0.2,0.2l-0.2,0.2
				l-0.2,0.2l-0.2,0.2l-0.2,0.2l-0.2,0.2l-0.2,0.2L22,44.8l-0.2,0.2l-0.2,0.2l-0.2,0.2L21,45.8L20.8,46l-0.2,0.2l-0.2,0.2l-0.2,0.2
				L19.9,47l-0.2,0.2l-0.2,0.2l-0.2,0.2l-0.2,0.2l-0.2,0.2l-0.2,0.2l-0.2,0.2L18,48.9l-0.2,0.2l-0.2,0.2l-0.2,0.2L17,49.8l-0.2,0.2
				l-0.2,0.2l-0.2,0.2l-0.2,0.2L15.8,51l-0.2,0.2l-0.2,0.2l-0.2,0.2L14.9,52l-0.2,0.2l-0.2,0.2l-0.2,0.2l-0.2,0.2l-0.2,0.2l-0.2,0.2
				l-0.2,0.2L13,53.9l-0.2,0.2l-0.2,0.2l-0.2,0.2L12,54.8l-0.2,0.2l-0.2,0.2l-0.2,0.2l-0.2,0.2L10.8,56l-0.2,0.2l-0.2,0.2l-0.2,0.2
				L9.9,57l-0.2,0.2l-0.2,0.2l-0.2,0.2l-0.2,0.2l-0.2,0.2l-0.2,0.2l-0.2,0.2L8,58.9l-0.2,0.2l-0.2,0.2l-0.2,0.2L7,59.8L6.8,60
				l-0.2,0.2l-0.2,0.2l-0.2,0.2L5.8,61l-0.2,0.2l-0.2,0.2l-0.2,0.2l-0.2,0.2l-0.2,0.2l-0.2,0.2l-0.2,0.2l-0.2,0.2l-0.2,0.2l-0.2,0.2
				v0.7l0.2,0.2l0.2,0.2l0.2,0.2L4.4,65l0.2,0.2l0.2,0.2l0.2,0.2L5.4,66l0.2,0.2l0.2,0.2l0.2,0.2l0.2,0.2l0.2,0.2l0.2,0.2L7,67.6
				l0.2,0.2l0.2,0.2l0.2,0.2L8,68.6l0.2,0.2l0.2,0.2l0.2,0.2l0.2,0.2l0.2,0.2L9.4,70l0.2,0.2l0.2,0.2l0.2,0.2l0.2,0.2c3,3,6,6,9,9
				l0.2,0.2l0.2,0.2l0.2,0.2l0.2,0.2l0.2,0.2l0.2,0.2l0.2,0.2l0.2,0.2l0.2,0.2l0.2,0.2l0.2,0.2l0.2,0.2l0.2,0.2l0.2,0.2l0.2,0.2
				l0.2,0.2l0.2,0.2l0.2,0.2l0.2,0.2l0.2,0.2l0.2,0.2l0.2,0.2l0.2,0.2l0.2,0.2l0.2,0.2l0.2,0.2l0.2,0.2l0.2,0.2l0.2,0.2l0.2,0.2
				l0.2,0.2l0.2,0.2l0.2,0.2l0.2,0.2l0.2,0.2l0.2,0.2l0.2,0.2l0.2,0.2l0.2,0.2l0.2,0.2l0.2,0.2l0.2,0.2l0.2,0.2l0.2,0.2l0.2,0.2
				l0.2,0.2l0.2,0.2l0.2,0.2l0.2,0.2l0.2,0.2l0.2,0.2l0.2,0.2l0.2,0.2l0.2,0.2l0.2,0.2l0.2,0.2l0.2,0.2l0.2,0.2l0.2,0.2l0.2,0.2
				l0.2,0.2l0.2,0.2l0.2,0.2l0.2,0.2l0.2,0.2l0.2,0.2l0.2,0.2l0.2,0.2l0.2,0.2l0.2,0.2l0.2,0.2l0.2,0.2l0.2,0.2l0.2,0.2l0.2,0.2
				l0.2,0.2l0.2,0.2l0.2,0.2l0.2,0.2l0.2,0.2l0.2,0.2l0.2,0.2l0.2,0.2l0.2,0.2l0.2,0.2l0.2,0.2l0.2,0.2l0.2,0.2l0.2,0.2l0.2,0.2
				l0.2,0.2l0.2,0.2l0.2,0.2l0.2,0.2l0.2,0.2l0.2,0.2l0.2,0.2l0.2,0.2l0.2,0.2l0.2,0.2l0.2,0.2l0.2,0.2l0.2,0.2l0.2,0.2l0.2,0.2
				l0.2,0.2l0.2,0.2l0.2,0.2l0.2,0.2l0.2,0.2l0.2,0.2l0.2,0.2l0.2,0.2l0.2,0.2l0.2,0.2l0.2,0.2l0.2,0.2l0.2,0.2l0.2,0.2l0.2,0.2
				l0.2,0.2l0.2,0.2l0.2,0.2l0.2,0.2h0.7l0.2-0.2l0.2-0.2l0.2-0.2l0.2-0.2l0.2-0.2L51,108l0.2-0.2l0.2-0.2l0.2-0.2l0.2-0.2l0.2-0.2
				l0.2-0.2l0.2-0.2l0.2-0.2l0.2-0.2l0.2-0.2l0.2-0.2l0.2-0.2l0.2-0.2l0.2-0.2l0.2-0.2l0.2-0.2L55,104l0.2-0.2l0.2-0.2l0.2-0.2
				l0.2-0.2l0.2-0.2l0.2-0.2l0.2-0.2l0.2-0.2l0.2-0.2l0.2-0.2l0.2-0.2l0.2-0.2l0.2-0.2l0.2-0.2l0.2-0.2l0.2-0.2l0.2-0.2l0.2-0.2
				l0.2-0.2l0.2-0.2L60,99l0.2-0.2l0.2-0.2l0.2-0.2l0.2-0.2l0.2-0.2l0.2-0.2l0.2-0.2l0.2-0.2l0.2-0.2l0.2-0.2l0.2-0.2l0.2-0.2
				l0.2-0.2l0.2-0.2l0.2-0.2l0.2-0.2l0.2-0.2l0.2-0.2l0.2-0.2l0.2-0.2L65,94l0.2-0.2l0.2-0.2l0.2-0.2l0.2-0.2l0.2-0.2l0.2-0.2
				l0.2-0.2l0.2-0.2l0.2-0.2l0.2-0.2l0.2-0.2l0.2-0.2l0.2-0.2l0.2-0.2l0.2-0.2l0.2-0.2L69,90l0.2-0.2l0.2-0.2l0.2-0.2l0.2-0.2
				l0.2-0.2l0.2-0.2l0.2-0.2l0.2-0.2l0.2-0.2l0.2-0.2l0.2-0.2l0.2-0.2l0.2-0.2l0.2-0.2l0.2-0.2l0.2-0.2l0.2-0.2l0.2-0.2l0.2-0.2
				l0.2-0.2L74,85l0.2-0.2l0.2-0.2l0.2-0.2l0.2-0.2l0.2-0.2l0.2-0.2l0.2-0.2l0.2-0.2l0.2-0.2l0.2-0.2l0.2-0.2l0.2-0.2l0.2-0.2
				l0.2-0.2l0.2-0.2l0.2-0.2l0.2-0.2l0.2-0.2l0.2-0.2l0.2-0.2L79,80c1.1-1.1,2.2-2.2,3.3-3.3l0.2-0.2l0.2-0.2l0.2-0.2l0.2-0.2
				l0.2-0.2l0.2-0.2L84,75l0.2-0.2l0.2-0.2l0.2-0.2l0.2-0.2l0.2-0.2l0.2-0.2l0.2-0.2l0.2-0.2l0.2-0.2l0.2-0.2l0.2-0.2l0.2-0.2
				l0.2-0.2l0.2-0.2l0.2-0.2l0.2-0.2L88,71l0.2-0.2l0.2-0.2l0.2-0.2l0.2-0.2l0.2-0.2l0.2-0.2l0.2-0.2l0.2-0.2l0.2-0.2l0.2-0.2
				l0.2-0.2l0.2-0.2l0.2-0.2l0.2-0.2l0.2-0.2l0.2-0.2l0.2-0.2l0.2-0.2l0.2-0.2l0.2-0.2L93,66l0.2-0.2l0.2-0.2l0.2-0.2l0.2-0.2
				l0.2-0.2l0.2-0.2l0.2-0.2l0.2-0.2v-0.7l-0.2-0.2l-0.2-0.2l-0.2-0.2l-0.2-0.2l-0.2-0.2l-0.2-0.2l-0.2-0.2L93,61.5l-0.2-0.2
				L92.5,61l-0.2-0.2L92,60.5l-0.2-0.2L91.6,60l-0.2-0.2l-0.2-0.2l-0.2-0.2l-0.2-0.2l-0.2-0.2l-0.2-0.2l-0.2-0.2l-0.2-0.2l-0.2-0.2
				l-0.2-0.2l-0.2-0.2l-0.2-0.2L88.5,57l-0.2-0.2L88,56.5l-0.2-0.2L87.5,56l-0.2-0.2L87,55.5l-0.2-0.2l-0.2-0.2l-0.2-0.2l-0.2-0.2
				l-0.2-0.2l-0.2-0.2l-0.2-0.2l-0.2-0.2l-0.2-0.2l-0.2-0.2l-0.2-0.2l-0.2-0.2L84,52.4l-0.2-0.2L83.5,52l-0.2-0.2L83,51.5l-0.2-0.2
				L82.5,51l-0.2-0.2l-0.2-0.2l-0.2-0.2l-0.2-0.2l-0.2-0.2l-0.2-0.2l-0.2-0.2l-0.2-0.2l-0.2-0.2l-0.2-0.2l-0.2-0.2l-0.2-0.2
				l-0.2-0.2l-0.2-0.2L79,47.5l-0.2-0.2L78.5,47l-0.2-0.2L78,46.5l-0.2-0.2L77.5,46l-0.2-0.2l-0.2-0.2l-0.2-0.2l-0.2-0.2l-0.2-0.2
				l-0.2-0.2l-0.2-0.2l-0.2-0.2l-0.2-0.2l-0.2-0.2l-0.2-0.2l-0.2-0.2l-0.2-0.2l-0.2-0.2L74,42.5l-0.2-0.2L73.5,42l-0.2-0.2L73,41.5
				l-0.2-0.2L72.6,41l-0.2-0.2H26L25.8,41z M69,18.3l-0.2,0.2l-0.2,0.2L68.3,19L68,19.2l-0.2,0.2l-0.2,0.2l-0.2,0.2l-0.2,0.2
				l-0.2,0.2l-0.2,0.2l-0.2,0.2l-0.2,0.2l-0.2,0.2l-0.2,0.2l-0.2,0.2l-0.2,0.2L65,22.3l-0.2,0.2l-0.2,0.2v0.7l0.2,0.2L65,24l0.2,0.2
				l0.2,0.2l0.2,0.2l0.2,0.2l0.2,0.2l0.2,0.2l0.2,0.2l0.2,0.2l0.2,0.2l0.2,0.2l0.2,0.2l0.2,0.2L68,27l0.2,0.2l0.2,0.2l0.2,0.2L69,28
				l0.2,0.2l0.2,0.2l0.2,0.2l0.2,0.2l0.2,0.2l0.2,0.2l0.2,0.2l0.2,0.2l0.2,0.2l0.2,0.2l0.2,0.2l0.2,0.2l0.2,0.2l0.2,0.2l0.2,0.2
				l0.2,0.2L73,32l0.2,0.2l0.2,0.2l0.2,0.2L74,33l0.2,0.2l0.2,0.2l0.2,0.2l0.2,0.2l0.2,0.2l0.2,0.2l0.2,0.2l0.2,0.2l0.2,0.2l0.2,0.2
				l0.2,0.2l0.2,0.2l0.2,0.2l0.2,0.2l0.2,0.2l0.2,0.2L78,37l0.2,0.2l0.2,0.2l0.2,0.2L79,38l0.2,0.2l0.2,0.2l0.2,0.2l0.2,0.2l0.2,0.2
				l0.2,0.2l0.2,0.2l0.2,0.2l0.2,0.2l0.2,0.2l0.2,0.2l0.2,0.2l0.2,0.2l0.2,0.2l0.2,0.2l0.2,0.2L83,42l0.2,0.2l0.2,0.2l0.2,0.2
				l0.2,0.2l0.2,0.2l0.2,0.2l0.2,0.2l0.2,0.2l0.2,0.2l0.2,0.2l0.2,0.2l0.2,0.2l0.2,0.2l0.2,0.2l0.2,0.2l0.2,0.2L87,46l0.2,0.2
				l0.2,0.2l0.2,0.2L88,47l0.2,0.2l0.2,0.2l0.2,0.2l0.2,0.2l0.2,0.2l0.2,0.2l0.2,0.2l0.2,0.2l0.2,0.2l0.2,0.2l0.2,0.2l0.2,0.2
				l0.2,0.2l0.2,0.2l0.2,0.2l0.2,0.2L92,51l0.2,0.2l0.2,0.2l0.2,0.2L93,52l0.2,0.2l0.2,0.2l0.2,0.2l0.2,0.2l0.2,0.2l0.2,0.2l0.2,0.2
				l0.2,0.2l0.2,0.2l0.2,0.2l0.2,0.2l0.2,0.2l0.2,0.2l0.2,0.2l0.2,0.2l0.2,0.2L97,56l0.2,0.2l0.2,0.2l0.2,0.2L98,57l0.2,0.2l0.2,0.2
				l0.2,0.2l0.2,0.2l0.2,0.2l0.2,0.2l0.2,0.2l0.2,0.2l0.2,0.2l0.2,0.2l0.2,0.2l0.2,0.2L101,60l0.2,0.2l0.2,0.2l0.2,0.2L102,61
				l0.2,0.2l0.2,0.2l0.2,0.2l0.2,0.2l0.2,0.2l0.2,0.2l0.2,0.2l0.2,0.2l0.2,0.2l0.2,0.2l0.2,0.2v0.2l-0.2,0.2l-0.2,0.2l-0.2,0.2
				l-0.2,0.2l-0.2,0.2l-0.2,0.2l-0.2,0.2l-0.2,0.2l-0.2,0.2l-0.2,0.2l-0.2,0.2l-0.2,0.2l-0.2,0.2l-0.2,0.2l-0.2,0.2l-0.2,0.2
				l-0.2,0.2l-0.2,0.2l-0.2,0.2l-0.2,0.2l-0.2,0.2l-0.2,0.2l-0.2,0.2l-0.2,0.2l-0.2,0.2L98.4,70l-0.2,0.2L98,70.5l-0.2,0.2L97.5,71
				l-0.2,0.2L97,71.4l-0.2,0.2l-0.2,0.2l-0.2,0.2l-0.2,0.2l-0.2,0.2l-0.2,0.2l-0.2,0.2l-0.2,0.2l-0.2,0.2l-0.2,0.2L94.4,74l-0.2,0.2
				l-0.2,0.2l-0.2,0.2L93.5,75l-0.2,0.2L93,75.5l-0.2,0.2l-0.2,0.2l-0.2,0.2L92,76.4l-0.2,0.2l-0.2,0.2l-0.2,0.2l-0.2,0.2l-0.2,0.2
				l-0.2,0.2l-0.2,0.2l-0.2,0.2l-0.2,0.2l-0.2,0.2L89.4,79l-0.2,0.2l-0.2,0.2l-0.2,0.2L88.5,80l-0.2,0.2L88,80.5l-0.2,0.2l-0.2,0.2
				l-0.2,0.2L87,81.4l-0.2,0.2l-0.2,0.2l-0.2,0.2l-0.2,0.2l-0.2,0.2l-0.2,0.2l-0.2,0.2l-0.2,0.2l-0.2,0.2l-0.2,0.2L84.4,84l-0.2,0.2
				L84,84.5l-0.2,0.2L83.5,85l-0.2,0.2L83,85.4l-0.2,0.2l-0.2,0.2l-0.2,0.2l-0.2,0.2l-0.2,0.2l-0.2,0.2l-0.2,0.2l-0.2,0.2l-0.2,0.2
				l-0.2,0.2l-0.2,0.2l-0.2,0.2l-0.2,0.2l-0.2,0.2L79.4,89l-0.2,0.2L79,89.5l-0.2,0.2L78.5,90l-0.2,0.2L78,90.4l-0.2,0.2l-0.2,0.2
				l-0.2,0.2l-0.2,0.2l-0.2,0.2l-0.2,0.2l-0.2,0.2l-0.2,0.2l-0.2,0.2l-0.2,0.2L75.4,93l-0.2,0.2l-0.2,0.2l-0.2,0.2L74.5,94l-0.2,0.2
				L74,94.5l-0.2,0.2l-0.2,0.2l-0.2,0.2L73,95.4l-0.2,0.2l-0.2,0.2l-0.2,0.2l-0.2,0.2l-0.2,0.2l-0.2,0.2l-0.2,0.2l-0.2,0.2l-0.2,0.2
				l-0.2,0.2L70.4,98l-0.2,0.2l-0.2,0.2l-0.2,0.2L69.5,99l-0.2,0.2L69,99.4l-0.2,0.2l-0.2,0.2l-0.2,0.2l-0.2,0.2l-0.2,0.2l-0.2,0.2
				l-0.2,0.2l-0.2,0.2l-0.2,0.2l-0.2,0.2l-0.2,0.2l-0.2,0.2l-0.2,0.2l-0.2,0.2l-0.2,0.2l-0.2,0.2l-0.2,0.2l-0.2,0.2l-0.2,0.2v0.7
				l0.2,0.2l0.2,0.2l0.2,0.2l0.2,0.2l0.2,0.2l0.2,0.2l0.2,0.2l0.2,0.2l0.2,0.2l0.2,0.2l0.2,0.2l0.2,0.2l0.2,0.2l0.2,0.2l0.2,0.2
				l0.2,0.2l0.2,0.2l0.2,0.2l0.2,0.2l0.2,0.2h0.7l0.2-0.2l0.2-0.2l0.2-0.2l0.2-0.2l0.2-0.2l0.2-0.2l0.2-0.2l0.2-0.2l0.2-0.2l0.2-0.2
				l0.2-0.2l0.2-0.2l0.2-0.2l0.2-0.2l0.2-0.2l0.2-0.2l0.2-0.2l0.2-0.2l0.2-0.2l0.2-0.2l0.2-0.2l0.2-0.2l0.2-0.2l0.2-0.2l0.2-0.2
				l0.2-0.2l0.2-0.2l0.2-0.2l0.2-0.2l0.2-0.2l0.2-0.2l0.2-0.2l0.2-0.2l0.2-0.2l0.2-0.2l0.2-0.2l0.2-0.2l0.2-0.2l0.2-0.2l0.2-0.2
				l0.2-0.2l0.2-0.2l0.2-0.2l0.2-0.2l0.2-0.2l0.2-0.2l0.2-0.2l0.2-0.2l0.2-0.2l0.2-0.2l0.2-0.2l0.2-0.2l0.2-0.2l0.2-0.2l0.2-0.2
				l0.2-0.2l0.2-0.2l0.2-0.2l0.2-0.2l0.2-0.2l0.2-0.2l0.2-0.2l0.2-0.2l0.2-0.2l0.2-0.2l0.2-0.2l0.2-0.2l0.2-0.2l0.2-0.2l0.2-0.2
				l0.2-0.2l0.2-0.2l0.2-0.2l0.2-0.2l0.2-0.2l0.2-0.2l0.2-0.2l0.2-0.2l0.2-0.2l0.2-0.2l0.2-0.2l0.2-0.2l0.2-0.2l0.2-0.2l0.2-0.2
				l0.2-0.2l0.2-0.2l0.2-0.2l0.2-0.2l0.2-0.2l0.2-0.2l0.2-0.2l0.2-0.2l0.2-0.2l0.2-0.2l0.2-0.2l0.2-0.2l0.2-0.2l0.2-0.2l0.2-0.2
				l0.2-0.2l0.2-0.2l0.2-0.2l0.2-0.2l0.2-0.2l0.2-0.2l0.2-0.2l0.2-0.2l0.2-0.2l0.2-0.2l0.2-0.2l0.2-0.2l0.2-0.2l0.2-0.2l0.2-0.2
				l0.2-0.2l0.2-0.2l0.2-0.2l0.2-0.2l0.2-0.2l0.2-0.2l0.2-0.2l0.2-0.2l0.2-0.2l0.2-0.2l0.2-0.2l0.2-0.2l0.2-0.2l0.2-0.2l0.2-0.2
				l0.2-0.2l0.2-0.2l0.2-0.2l0.2-0.2l0.2-0.2l0.2-0.2l0.2-0.2l0.2-0.2l0.2-0.2l0.2-0.2l0.2-0.2l0.2-0.2l0.2-0.2l0.2-0.2l0.2-0.2
				l0.2-0.2l0.2-0.2l0.2-0.2l0.2-0.2l0.2-0.2l0.2-0.2l0.2-0.2l0.2-0.2l0.2-0.2l0.2-0.2l0.2-0.2l0.2-0.2l0.2-0.2l0.2-0.2l0.2-0.2
				l0.2-0.2l0.2-0.2l0.2-0.2l0.2-0.2l0.2-0.2l0.2-0.2l0.2-0.2l0.2-0.2l0.2-0.2l0.2-0.2l0.2-0.2l0.2-0.2l0.2-0.2l0.2-0.2l0.2-0.2
				l0.2-0.2l0.2-0.2l0.2-0.2l0.2-0.2l0.2-0.2l0.2-0.2l0.2-0.2l0.2-0.2l0.2-0.2l0.2-0.2l0.2-0.2l0.2-0.2l0.2-0.2l0.2-0.2l0.2-0.2
				l0.2-0.2v-0.7l-0.2-0.2l-0.2-0.2l-0.2-0.2l-0.2-0.2l-0.2-0.2l-0.2-0.2l-0.2-0.2l-0.2-0.2l-0.2-0.2l-0.2-0.2l-0.2-0.2l-0.2-0.2
				l-0.2-0.2L112,60l-0.2-0.2l-0.2-0.2l-0.2-0.2l-0.2-0.2l-0.2-0.2l-0.2-0.2l-0.2-0.2l-0.2-0.2l-0.2-0.2l-0.2-0.2l-0.2-0.2l-0.2-0.2
				l-0.2-0.2l-0.2-0.2l-0.2-0.2l-0.2-0.2l-0.2-0.2l-0.2-0.2l-0.2-0.2l-0.2-0.2l-0.2-0.2l-0.2-0.2l-0.2-0.2l-0.2-0.2l-0.2-0.2
				l-0.2-0.2l-0.2-0.2l-0.2-0.2l-0.2-0.2l-0.2-0.2l-0.2-0.2l-0.2-0.2l-0.2-0.2l-0.2-0.2l-0.2-0.2l-0.2-0.2l-0.2-0.2l-0.2-0.2
				l-0.2-0.2l-0.2-0.2l-0.2-0.2l-0.2-0.2l-0.2-0.2l-0.2-0.2l-0.2-0.2l-0.2-0.2l-0.2-0.2l-0.2-0.2l-0.2-0.2l-0.2-0.2l-0.2-0.2
				l-0.2-0.2l-0.2-0.2l-0.2-0.2L98.9,47l-0.2-0.2l-0.2-0.2l-0.2-0.2L98,46l-0.2-0.2l-0.2-0.2l-0.2-0.2L97,45.1l-0.2-0.2l-0.2-0.2
				l-0.2-0.2l-0.2-0.2l-0.2-0.2l-0.2-0.2l-0.2-0.2l-0.2-0.2l-0.2-0.2l-0.2-0.2l-0.2-0.2l-0.2-0.2L93.9,42l-0.2-0.2l-0.2-0.2
				l-0.2-0.2L93,41l-0.2-0.2l-0.2-0.2l-0.2-0.2L92,40.1l-0.2-0.2l-0.2-0.2l-0.2-0.2l-0.2-0.2l-0.2-0.2l-0.2-0.2l-0.2-0.2l-0.2-0.2
				L89.9,38l-0.2-0.2l-0.2-0.2l-0.2-0.2L88.9,37l-0.2-0.2l-0.2-0.2l-0.2-0.2L88,36.1l-0.2-0.2l-0.2-0.2l-0.2-0.2L87,35.1l-0.2-0.2
				l-0.2-0.2l-0.2-0.2l-0.2-0.2l-0.2-0.2l-0.2-0.2l-0.2-0.2l-0.2-0.2L84.9,33l-0.2-0.2l-0.2-0.2l-0.2-0.2L84,32l-0.2-0.2l-0.2-0.2
				l-0.2-0.2L83,31.1l-0.2-0.2l-0.2-0.2l-0.2-0.2l-0.2-0.2l-0.2-0.2l-0.2-0.2l-0.2-0.2l-0.2-0.2l-0.2-0.2l-0.2-0.2l-0.2-0.2
				l-0.2-0.2L79.9,28l-0.2-0.2l-0.2-0.2l-0.2-0.2L79,27l-0.2-0.2l-0.2-0.2l-0.2-0.2L78,26.1l-0.2-0.2l-0.2-0.2l-0.2-0.2l-0.2-0.2
				l-0.2-0.2l-0.2-0.2l-0.2-0.2l-0.2-0.2L75.9,24l-0.2-0.2l-0.2-0.2l-0.2-0.2L74.9,23l-0.2-0.2l-0.2-0.2l-0.2-0.2L74,22.1l-0.2-0.2
				l-0.2-0.2l-0.2-0.2L73,21.1l-0.2-0.2l-0.2-0.2l-0.2-0.2l-0.2-0.2l-0.2-0.2l-0.2-0.2l-0.2-0.2l-0.2-0.2L70.9,19l-0.2-0.2l-0.2-0.2
				l-0.2-0.2L69.9,18h-0.7L69,18.3z M48.3,18.5l-0.2,0.2L47.9,19l-0.2,0.2l-0.2,0.2l-0.2,0.2l-0.2,0.2l-0.2,0.2l-0.2,0.2l-0.2,0.2
				L46,20.9l-0.2,0.2l-0.2,0.2l-0.2,0.2L45,21.8l-0.2,0.2l-0.2,0.2l-0.2,0.2l-0.2,0.2L43.8,23l-0.2,0.2l-0.2,0.2l-0.2,0.2L42.9,24
				l-0.2,0.2l-0.2,0.2l-0.2,0.2l-0.2,0.2l-0.2,0.2l-0.2,0.2l-0.2,0.2L41,25.8l-0.2,0.2l-0.2,0.2l-0.2,0.2L40,26.8L39.8,27l-0.2,0.2
				l-0.2,0.2l-0.2,0.2L38.8,28l-0.2,0.2l-0.2,0.2l-0.2,0.2l-0.2,0.2l-0.2,0.2l-0.2,0.2l-0.2,0.2l-0.2,0.2l-0.2,0.2l-0.2,0.2
				l-0.2,0.2L36,30.8l-0.2,0.2l-0.2,0.2l-0.2,0.2L35,31.8L34.8,32l-0.2,0.2l-0.2,0.2l-0.2,0.2L33.9,33l-0.2,0.2l-0.2,0.2l-0.2,0.2
				l-0.2,0.2l-0.2,0.2l-0.2,0.2l-0.2,0.2L32,34.9l-0.2,0.2l-0.2,0.2l-0.2,0.2L31,35.8l-0.2,0.2l-0.2,0.2l-0.2,0.2l-0.2,0.2L29.8,37
				l-0.2,0.2l-0.2,0.2l-0.2,0.2L28.9,38l-0.2,0.2v0.2h20.2V18.3h-0.2L48.3,18.5z M49.8,38.4h19.9v-0.2L69.5,38l-0.2-0.2L69,37.5
				l-0.2-0.2L68.5,37l-0.2-0.2L68,36.5l-0.2-0.2l-0.2-0.2l-0.2-0.2l-0.2-0.2l-0.2-0.2l-0.2-0.2l-0.2-0.2l-0.2-0.2l-0.2-0.2l-0.2-0.2
				l-0.2-0.2l-0.2-0.2L65,33.4l-0.2-0.2L64.5,33l-0.2-0.2L64,32.5l-0.2-0.2L63.5,32l-0.2-0.2l-0.2-0.2l-0.2-0.2l-0.2-0.2l-0.2-0.2
				l-0.2-0.2l-0.2-0.2l-0.2-0.2l-0.2-0.2l-0.2-0.2l-0.2-0.2l-0.2-0.2l-0.2-0.2l-0.2-0.2L60,28.5l-0.2-0.2L59.5,28l-0.2-0.2L59,27.5
				l-0.2-0.2L58.6,27l-0.2-0.2l-0.2-0.2l-0.2-0.2l-0.2-0.2l-0.2-0.2l-0.2-0.2l-0.2-0.2l-0.2-0.2l-0.2-0.2l-0.2-0.2l-0.2-0.2
				l-0.2-0.2L55.5,24l-0.2-0.2L55,23.5l-0.2-0.2L54.5,23l-0.2-0.2L54,22.5l-0.2-0.2l-0.2-0.2l-0.2-0.2l-0.2-0.2l-0.2-0.2l-0.2-0.2
				l-0.2-0.2l-0.2-0.2l-0.2-0.2l-0.2-0.2l-0.2-0.2l-0.2-0.2L51,19.4l-0.2-0.2L50.5,19l-0.2-0.2L50,18.5h-0.2V38.4z"/>
		</g>
		<g>
			<defs>
				<path id="SVGID_1_" d="M25.8,41l-0.2,0.2l-0.2,0.2l-0.2,0.2L24.8,42l-0.2,0.2l-0.2,0.2l-0.2,0.2l-0.2,0.2l-0.2,0.2l-0.2,0.2
					l-0.2,0.2l-0.2,0.2l-0.2,0.2l-0.2,0.2l-0.2,0.2L22,44.8l-0.2,0.2l-0.2,0.2l-0.2,0.2L21,45.8L20.8,46l-0.2,0.2l-0.2,0.2l-0.2,0.2
					L19.9,47l-0.2,0.2l-0.2,0.2l-0.2,0.2l-0.2,0.2l-0.2,0.2l-0.2,0.2l-0.2,0.2L18,48.9l-0.2,0.2l-0.2,0.2l-0.2,0.2L17,49.8l-0.2,0.2
					l-0.2,0.2l-0.2,0.2l-0.2,0.2L15.8,51l-0.2,0.2l-0.2,0.2l-0.2,0.2L14.9,52l-0.2,0.2l-0.2,0.2l-0.2,0.2l-0.2,0.2l-0.2,0.2
					l-0.2,0.2l-0.2,0.2L13,53.9l-0.2,0.2l-0.2,0.2l-0.2,0.2L12,54.8l-0.2,0.2l-0.2,0.2l-0.2,0.2l-0.2,0.2L10.8,56l-0.2,0.2l-0.2,0.2
					l-0.2,0.2L9.9,57l-0.2,0.2l-0.2,0.2l-0.2,0.2l-0.2,0.2l-0.2,0.2l-0.2,0.2l-0.2,0.2L8,58.9l-0.2,0.2l-0.2,0.2l-0.2,0.2L7,59.8
					L6.8,60l-0.2,0.2l-0.2,0.2l-0.2,0.2L5.8,61l-0.2,0.2l-0.2,0.2l-0.2,0.2l-0.2,0.2l-0.2,0.2l-0.2,0.2l-0.2,0.2l-0.2,0.2l-0.2,0.2
					l-0.2,0.2v0.7l0.2,0.2l0.2,0.2l0.2,0.2L4.4,65l0.2,0.2l0.2,0.2l0.2,0.2L5.4,66l0.2,0.2l0.2,0.2l0.2,0.2l0.2,0.2l0.2,0.2l0.2,0.2
					L7,67.6l0.2,0.2l0.2,0.2l0.2,0.2L8,68.6l0.2,0.2l0.2,0.2l0.2,0.2l0.2,0.2l0.2,0.2L9.4,70l0.2,0.2l0.2,0.2l0.2,0.2l0.2,0.2
					c3,3,6,6,9,9l0.2,0.2l0.2,0.2l0.2,0.2l0.2,0.2l0.2,0.2l0.2,0.2l0.2,0.2l0.2,0.2l0.2,0.2l0.2,0.2l0.2,0.2l0.2,0.2l0.2,0.2
					l0.2,0.2l0.2,0.2l0.2,0.2l0.2,0.2l0.2,0.2l0.2,0.2l0.2,0.2l0.2,0.2l0.2,0.2l0.2,0.2l0.2,0.2l0.2,0.2l0.2,0.2l0.2,0.2l0.2,0.2
					l0.2,0.2l0.2,0.2l0.2,0.2l0.2,0.2l0.2,0.2l0.2,0.2l0.2,0.2l0.2,0.2l0.2,0.2l0.2,0.2l0.2,0.2l0.2,0.2l0.2,0.2l0.2,0.2l0.2,0.2
					l0.2,0.2l0.2,0.2l0.2,0.2l0.2,0.2l0.2,0.2l0.2,0.2l0.2,0.2l0.2,0.2l0.2,0.2l0.2,0.2l0.2,0.2l0.2,0.2l0.2,0.2l0.2,0.2l0.2,0.2
					l0.2,0.2l0.2,0.2l0.2,0.2l0.2,0.2l0.2,0.2l0.2,0.2l0.2,0.2l0.2,0.2l0.2,0.2l0.2,0.2l0.2,0.2l0.2,0.2l0.2,0.2l0.2,0.2l0.2,0.2
					l0.2,0.2l0.2,0.2l0.2,0.2l0.2,0.2l0.2,0.2l0.2,0.2l0.2,0.2l0.2,0.2l0.2,0.2l0.2,0.2l0.2,0.2l0.2,0.2l0.2,0.2l0.2,0.2l0.2,0.2
					l0.2,0.2l0.2,0.2l0.2,0.2l0.2,0.2l0.2,0.2l0.2,0.2l0.2,0.2l0.2,0.2l0.2,0.2l0.2,0.2l0.2,0.2l0.2,0.2l0.2,0.2l0.2,0.2l0.2,0.2
					l0.2,0.2l0.2,0.2l0.2,0.2l0.2,0.2l0.2,0.2l0.2,0.2l0.2,0.2l0.2,0.2l0.2,0.2l0.2,0.2l0.2,0.2l0.2,0.2l0.2,0.2l0.2,0.2l0.2,0.2
					l0.2,0.2l0.2,0.2l0.2,0.2l0.2,0.2l0.2,0.2l0.2,0.2h0.7l0.2-0.2l0.2-0.2l0.2-0.2l0.2-0.2l0.2-0.2L51,108l0.2-0.2l0.2-0.2l0.2-0.2
					l0.2-0.2l0.2-0.2l0.2-0.2l0.2-0.2l0.2-0.2l0.2-0.2l0.2-0.2l0.2-0.2l0.2-0.2l0.2-0.2l0.2-0.2l0.2-0.2l0.2-0.2L55,104l0.2-0.2
					l0.2-0.2l0.2-0.2l0.2-0.2l0.2-0.2l0.2-0.2l0.2-0.2l0.2-0.2l0.2-0.2l0.2-0.2l0.2-0.2l0.2-0.2l0.2-0.2l0.2-0.2l0.2-0.2l0.2-0.2
					l0.2-0.2l0.2-0.2l0.2-0.2l0.2-0.2L60,99l0.2-0.2l0.2-0.2l0.2-0.2l0.2-0.2l0.2-0.2l0.2-0.2l0.2-0.2l0.2-0.2l0.2-0.2l0.2-0.2
					l0.2-0.2l0.2-0.2l0.2-0.2l0.2-0.2l0.2-0.2l0.2-0.2l0.2-0.2l0.2-0.2l0.2-0.2l0.2-0.2L65,94l0.2-0.2l0.2-0.2l0.2-0.2l0.2-0.2
					l0.2-0.2l0.2-0.2l0.2-0.2l0.2-0.2l0.2-0.2l0.2-0.2l0.2-0.2l0.2-0.2l0.2-0.2l0.2-0.2l0.2-0.2l0.2-0.2L69,90l0.2-0.2l0.2-0.2
					l0.2-0.2l0.2-0.2l0.2-0.2l0.2-0.2l0.2-0.2l0.2-0.2l0.2-0.2l0.2-0.2l0.2-0.2l0.2-0.2l0.2-0.2l0.2-0.2l0.2-0.2l0.2-0.2l0.2-0.2
					l0.2-0.2l0.2-0.2l0.2-0.2L74,85l0.2-0.2l0.2-0.2l0.2-0.2l0.2-0.2l0.2-0.2l0.2-0.2l0.2-0.2l0.2-0.2l0.2-0.2l0.2-0.2l0.2-0.2
					l0.2-0.2l0.2-0.2l0.2-0.2l0.2-0.2l0.2-0.2l0.2-0.2l0.2-0.2l0.2-0.2l0.2-0.2L79,80c1.1-1.1,2.2-2.2,3.3-3.3l0.2-0.2l0.2-0.2
					l0.2-0.2l0.2-0.2l0.2-0.2l0.2-0.2L84,75l0.2-0.2l0.2-0.2l0.2-0.2l0.2-0.2l0.2-0.2l0.2-0.2l0.2-0.2l0.2-0.2l0.2-0.2l0.2-0.2
					l0.2-0.2l0.2-0.2l0.2-0.2l0.2-0.2l0.2-0.2l0.2-0.2L88,71l0.2-0.2l0.2-0.2l0.2-0.2l0.2-0.2l0.2-0.2l0.2-0.2l0.2-0.2l0.2-0.2
					l0.2-0.2l0.2-0.2l0.2-0.2l0.2-0.2l0.2-0.2l0.2-0.2l0.2-0.2l0.2-0.2l0.2-0.2l0.2-0.2l0.2-0.2l0.2-0.2L93,66l0.2-0.2l0.2-0.2
					l0.2-0.2l0.2-0.2l0.2-0.2l0.2-0.2l0.2-0.2l0.2-0.2v-0.7l-0.2-0.2l-0.2-0.2l-0.2-0.2l-0.2-0.2l-0.2-0.2l-0.2-0.2l-0.2-0.2
					L93,61.5l-0.2-0.2L92.5,61l-0.2-0.2L92,60.5l-0.2-0.2L91.6,60l-0.2-0.2l-0.2-0.2l-0.2-0.2l-0.2-0.2l-0.2-0.2l-0.2-0.2l-0.2-0.2
					l-0.2-0.2l-0.2-0.2l-0.2-0.2l-0.2-0.2l-0.2-0.2L88.5,57l-0.2-0.2L88,56.5l-0.2-0.2L87.5,56l-0.2-0.2L87,55.5l-0.2-0.2l-0.2-0.2
					l-0.2-0.2l-0.2-0.2l-0.2-0.2l-0.2-0.2l-0.2-0.2l-0.2-0.2l-0.2-0.2l-0.2-0.2l-0.2-0.2l-0.2-0.2L84,52.4l-0.2-0.2L83.5,52
					l-0.2-0.2L83,51.5l-0.2-0.2L82.5,51l-0.2-0.2l-0.2-0.2l-0.2-0.2l-0.2-0.2l-0.2-0.2l-0.2-0.2l-0.2-0.2l-0.2-0.2l-0.2-0.2
					l-0.2-0.2l-0.2-0.2l-0.2-0.2l-0.2-0.2l-0.2-0.2L79,47.5l-0.2-0.2L78.5,47l-0.2-0.2L78,46.5l-0.2-0.2L77.5,46l-0.2-0.2l-0.2-0.2
					l-0.2-0.2l-0.2-0.2l-0.2-0.2l-0.2-0.2l-0.2-0.2l-0.2-0.2l-0.2-0.2l-0.2-0.2l-0.2-0.2l-0.2-0.2l-0.2-0.2l-0.2-0.2L74,42.5
					l-0.2-0.2L73.5,42l-0.2-0.2L73,41.5l-0.2-0.2L72.6,41l-0.2-0.2H26L25.8,41z M69,18.3l-0.2,0.2l-0.2,0.2L68.3,19L68,19.2
					l-0.2,0.2l-0.2,0.2l-0.2,0.2l-0.2,0.2l-0.2,0.2l-0.2,0.2l-0.2,0.2l-0.2,0.2l-0.2,0.2l-0.2,0.2l-0.2,0.2l-0.2,0.2L65,22.3
					l-0.2,0.2l-0.2,0.2v0.7l0.2,0.2L65,24l0.2,0.2l0.2,0.2l0.2,0.2l0.2,0.2l0.2,0.2l0.2,0.2l0.2,0.2l0.2,0.2l0.2,0.2l0.2,0.2
					l0.2,0.2l0.2,0.2L68,27l0.2,0.2l0.2,0.2l0.2,0.2L69,28l0.2,0.2l0.2,0.2l0.2,0.2l0.2,0.2l0.2,0.2l0.2,0.2l0.2,0.2l0.2,0.2
					l0.2,0.2l0.2,0.2l0.2,0.2l0.2,0.2l0.2,0.2l0.2,0.2l0.2,0.2l0.2,0.2L73,32l0.2,0.2l0.2,0.2l0.2,0.2L74,33l0.2,0.2l0.2,0.2
					l0.2,0.2l0.2,0.2l0.2,0.2l0.2,0.2l0.2,0.2l0.2,0.2l0.2,0.2l0.2,0.2l0.2,0.2l0.2,0.2l0.2,0.2l0.2,0.2l0.2,0.2l0.2,0.2L78,37
					l0.2,0.2l0.2,0.2l0.2,0.2L79,38l0.2,0.2l0.2,0.2l0.2,0.2l0.2,0.2l0.2,0.2l0.2,0.2l0.2,0.2l0.2,0.2l0.2,0.2l0.2,0.2l0.2,0.2
					l0.2,0.2l0.2,0.2l0.2,0.2l0.2,0.2l0.2,0.2L83,42l0.2,0.2l0.2,0.2l0.2,0.2l0.2,0.2l0.2,0.2l0.2,0.2l0.2,0.2l0.2,0.2l0.2,0.2
					l0.2,0.2l0.2,0.2l0.2,0.2l0.2,0.2l0.2,0.2l0.2,0.2l0.2,0.2L87,46l0.2,0.2l0.2,0.2l0.2,0.2L88,47l0.2,0.2l0.2,0.2l0.2,0.2
					l0.2,0.2l0.2,0.2l0.2,0.2l0.2,0.2l0.2,0.2l0.2,0.2l0.2,0.2l0.2,0.2l0.2,0.2l0.2,0.2l0.2,0.2l0.2,0.2l0.2,0.2L92,51l0.2,0.2
					l0.2,0.2l0.2,0.2L93,52l0.2,0.2l0.2,0.2l0.2,0.2l0.2,0.2l0.2,0.2l0.2,0.2l0.2,0.2l0.2,0.2l0.2,0.2l0.2,0.2l0.2,0.2l0.2,0.2
					l0.2,0.2l0.2,0.2l0.2,0.2l0.2,0.2L97,56l0.2,0.2l0.2,0.2l0.2,0.2L98,57l0.2,0.2l0.2,0.2l0.2,0.2l0.2,0.2l0.2,0.2l0.2,0.2
					l0.2,0.2l0.2,0.2l0.2,0.2l0.2,0.2l0.2,0.2l0.2,0.2L101,60l0.2,0.2l0.2,0.2l0.2,0.2L102,61l0.2,0.2l0.2,0.2l0.2,0.2l0.2,0.2
					l0.2,0.2l0.2,0.2l0.2,0.2l0.2,0.2l0.2,0.2l0.2,0.2l0.2,0.2v0.2l-0.2,0.2l-0.2,0.2l-0.2,0.2l-0.2,0.2l-0.2,0.2l-0.2,0.2l-0.2,0.2
					l-0.2,0.2l-0.2,0.2l-0.2,0.2l-0.2,0.2l-0.2,0.2l-0.2,0.2l-0.2,0.2l-0.2,0.2l-0.2,0.2l-0.2,0.2l-0.2,0.2l-0.2,0.2l-0.2,0.2
					l-0.2,0.2l-0.2,0.2l-0.2,0.2l-0.2,0.2l-0.2,0.2L98.4,70l-0.2,0.2L98,70.5l-0.2,0.2L97.5,71l-0.2,0.2L97,71.4l-0.2,0.2l-0.2,0.2
					l-0.2,0.2l-0.2,0.2l-0.2,0.2l-0.2,0.2l-0.2,0.2l-0.2,0.2l-0.2,0.2l-0.2,0.2L94.4,74l-0.2,0.2l-0.2,0.2l-0.2,0.2L93.5,75
					l-0.2,0.2L93,75.5l-0.2,0.2l-0.2,0.2l-0.2,0.2L92,76.4l-0.2,0.2l-0.2,0.2l-0.2,0.2l-0.2,0.2l-0.2,0.2l-0.2,0.2l-0.2,0.2
					l-0.2,0.2l-0.2,0.2l-0.2,0.2L89.4,79l-0.2,0.2l-0.2,0.2l-0.2,0.2L88.5,80l-0.2,0.2L88,80.5l-0.2,0.2l-0.2,0.2l-0.2,0.2L87,81.4
					l-0.2,0.2l-0.2,0.2l-0.2,0.2l-0.2,0.2l-0.2,0.2l-0.2,0.2l-0.2,0.2l-0.2,0.2l-0.2,0.2l-0.2,0.2L84.4,84l-0.2,0.2L84,84.5
					l-0.2,0.2L83.5,85l-0.2,0.2L83,85.4l-0.2,0.2l-0.2,0.2l-0.2,0.2l-0.2,0.2l-0.2,0.2l-0.2,0.2l-0.2,0.2l-0.2,0.2l-0.2,0.2
					l-0.2,0.2l-0.2,0.2l-0.2,0.2l-0.2,0.2l-0.2,0.2L79.4,89l-0.2,0.2L79,89.5l-0.2,0.2L78.5,90l-0.2,0.2L78,90.4l-0.2,0.2l-0.2,0.2
					l-0.2,0.2l-0.2,0.2l-0.2,0.2l-0.2,0.2l-0.2,0.2l-0.2,0.2l-0.2,0.2l-0.2,0.2L75.4,93l-0.2,0.2l-0.2,0.2l-0.2,0.2L74.5,94
					l-0.2,0.2L74,94.5l-0.2,0.2l-0.2,0.2l-0.2,0.2L73,95.4l-0.2,0.2l-0.2,0.2l-0.2,0.2l-0.2,0.2l-0.2,0.2l-0.2,0.2l-0.2,0.2
					l-0.2,0.2l-0.2,0.2l-0.2,0.2L70.4,98l-0.2,0.2l-0.2,0.2l-0.2,0.2L69.5,99l-0.2,0.2L69,99.4l-0.2,0.2l-0.2,0.2l-0.2,0.2l-0.2,0.2
					l-0.2,0.2l-0.2,0.2l-0.2,0.2l-0.2,0.2l-0.2,0.2l-0.2,0.2l-0.2,0.2l-0.2,0.2l-0.2,0.2l-0.2,0.2l-0.2,0.2l-0.2,0.2l-0.2,0.2
					l-0.2,0.2l-0.2,0.2v0.7l0.2,0.2l0.2,0.2l0.2,0.2l0.2,0.2l0.2,0.2l0.2,0.2l0.2,0.2l0.2,0.2l0.2,0.2l0.2,0.2l0.2,0.2l0.2,0.2
					l0.2,0.2l0.2,0.2l0.2,0.2l0.2,0.2l0.2,0.2l0.2,0.2l0.2,0.2l0.2,0.2h0.7l0.2-0.2l0.2-0.2l0.2-0.2l0.2-0.2l0.2-0.2l0.2-0.2
					l0.2-0.2l0.2-0.2l0.2-0.2l0.2-0.2l0.2-0.2l0.2-0.2l0.2-0.2l0.2-0.2l0.2-0.2l0.2-0.2l0.2-0.2l0.2-0.2l0.2-0.2l0.2-0.2l0.2-0.2
					l0.2-0.2l0.2-0.2l0.2-0.2l0.2-0.2l0.2-0.2l0.2-0.2l0.2-0.2l0.2-0.2l0.2-0.2l0.2-0.2l0.2-0.2l0.2-0.2l0.2-0.2l0.2-0.2l0.2-0.2
					l0.2-0.2l0.2-0.2l0.2-0.2l0.2-0.2l0.2-0.2l0.2-0.2l0.2-0.2l0.2-0.2l0.2-0.2l0.2-0.2l0.2-0.2l0.2-0.2l0.2-0.2l0.2-0.2l0.2-0.2
					l0.2-0.2l0.2-0.2l0.2-0.2l0.2-0.2l0.2-0.2l0.2-0.2l0.2-0.2l0.2-0.2l0.2-0.2l0.2-0.2l0.2-0.2l0.2-0.2l0.2-0.2l0.2-0.2l0.2-0.2
					l0.2-0.2l0.2-0.2l0.2-0.2l0.2-0.2l0.2-0.2l0.2-0.2l0.2-0.2l0.2-0.2l0.2-0.2l0.2-0.2l0.2-0.2l0.2-0.2l0.2-0.2l0.2-0.2l0.2-0.2
					l0.2-0.2l0.2-0.2l0.2-0.2l0.2-0.2l0.2-0.2l0.2-0.2l0.2-0.2l0.2-0.2l0.2-0.2l0.2-0.2l0.2-0.2l0.2-0.2l0.2-0.2l0.2-0.2l0.2-0.2
					l0.2-0.2l0.2-0.2l0.2-0.2l0.2-0.2l0.2-0.2l0.2-0.2l0.2-0.2l0.2-0.2l0.2-0.2l0.2-0.2l0.2-0.2l0.2-0.2l0.2-0.2l0.2-0.2l0.2-0.2
					l0.2-0.2l0.2-0.2l0.2-0.2l0.2-0.2l0.2-0.2l0.2-0.2l0.2-0.2l0.2-0.2l0.2-0.2l0.2-0.2l0.2-0.2l0.2-0.2l0.2-0.2l0.2-0.2l0.2-0.2
					l0.2-0.2l0.2-0.2l0.2-0.2l0.2-0.2l0.2-0.2l0.2-0.2l0.2-0.2l0.2-0.2l0.2-0.2l0.2-0.2l0.2-0.2l0.2-0.2l0.2-0.2l0.2-0.2l0.2-0.2
					l0.2-0.2l0.2-0.2l0.2-0.2l0.2-0.2l0.2-0.2l0.2-0.2l0.2-0.2l0.2-0.2l0.2-0.2l0.2-0.2l0.2-0.2l0.2-0.2l0.2-0.2l0.2-0.2l0.2-0.2
					l0.2-0.2l0.2-0.2l0.2-0.2l0.2-0.2l0.2-0.2l0.2-0.2l0.2-0.2l0.2-0.2l0.2-0.2l0.2-0.2l0.2-0.2l0.2-0.2l0.2-0.2l0.2-0.2l0.2-0.2
					l0.2-0.2l0.2-0.2l0.2-0.2l0.2-0.2l0.2-0.2l0.2-0.2l0.2-0.2l0.2-0.2l0.2-0.2l0.2-0.2l0.2-0.2l0.2-0.2l0.2-0.2l0.2-0.2l0.2-0.2
					l0.2-0.2l0.2-0.2l0.2-0.2l0.2-0.2l0.2-0.2v-0.7l-0.2-0.2l-0.2-0.2l-0.2-0.2l-0.2-0.2l-0.2-0.2l-0.2-0.2l-0.2-0.2l-0.2-0.2
					l-0.2-0.2l-0.2-0.2l-0.2-0.2l-0.2-0.2l-0.2-0.2L112,60l-0.2-0.2l-0.2-0.2l-0.2-0.2l-0.2-0.2l-0.2-0.2l-0.2-0.2l-0.2-0.2
					l-0.2-0.2l-0.2-0.2l-0.2-0.2l-0.2-0.2l-0.2-0.2l-0.2-0.2l-0.2-0.2l-0.2-0.2l-0.2-0.2l-0.2-0.2l-0.2-0.2l-0.2-0.2l-0.2-0.2
					l-0.2-0.2l-0.2-0.2l-0.2-0.2l-0.2-0.2l-0.2-0.2l-0.2-0.2l-0.2-0.2l-0.2-0.2l-0.2-0.2l-0.2-0.2l-0.2-0.2l-0.2-0.2l-0.2-0.2
					l-0.2-0.2l-0.2-0.2l-0.2-0.2l-0.2-0.2l-0.2-0.2l-0.2-0.2l-0.2-0.2l-0.2-0.2l-0.2-0.2l-0.2-0.2l-0.2-0.2l-0.2-0.2l-0.2-0.2
					l-0.2-0.2l-0.2-0.2l-0.2-0.2l-0.2-0.2l-0.2-0.2l-0.2-0.2l-0.2-0.2l-0.2-0.2L98.9,47l-0.2-0.2l-0.2-0.2l-0.2-0.2L98,46l-0.2-0.2
					l-0.2-0.2l-0.2-0.2L97,45.1l-0.2-0.2l-0.2-0.2l-0.2-0.2l-0.2-0.2l-0.2-0.2l-0.2-0.2l-0.2-0.2l-0.2-0.2l-0.2-0.2l-0.2-0.2
					l-0.2-0.2l-0.2-0.2L93.9,42l-0.2-0.2l-0.2-0.2l-0.2-0.2L93,41l-0.2-0.2l-0.2-0.2l-0.2-0.2L92,40.1l-0.2-0.2l-0.2-0.2l-0.2-0.2
					l-0.2-0.2l-0.2-0.2l-0.2-0.2l-0.2-0.2l-0.2-0.2L89.9,38l-0.2-0.2l-0.2-0.2l-0.2-0.2L88.9,37l-0.2-0.2l-0.2-0.2l-0.2-0.2L88,36.1
					l-0.2-0.2l-0.2-0.2l-0.2-0.2L87,35.1l-0.2-0.2l-0.2-0.2l-0.2-0.2l-0.2-0.2l-0.2-0.2l-0.2-0.2l-0.2-0.2l-0.2-0.2L84.9,33
					l-0.2-0.2l-0.2-0.2l-0.2-0.2L84,32l-0.2-0.2l-0.2-0.2l-0.2-0.2L83,31.1l-0.2-0.2l-0.2-0.2l-0.2-0.2l-0.2-0.2l-0.2-0.2l-0.2-0.2
					l-0.2-0.2l-0.2-0.2l-0.2-0.2l-0.2-0.2l-0.2-0.2l-0.2-0.2L79.9,28l-0.2-0.2l-0.2-0.2l-0.2-0.2L79,27l-0.2-0.2l-0.2-0.2l-0.2-0.2
					L78,26.1l-0.2-0.2l-0.2-0.2l-0.2-0.2l-0.2-0.2l-0.2-0.2l-0.2-0.2l-0.2-0.2l-0.2-0.2L75.9,24l-0.2-0.2l-0.2-0.2l-0.2-0.2L74.9,23
					l-0.2-0.2l-0.2-0.2l-0.2-0.2L74,22.1l-0.2-0.2l-0.2-0.2l-0.2-0.2L73,21.1l-0.2-0.2l-0.2-0.2l-0.2-0.2l-0.2-0.2l-0.2-0.2
					l-0.2-0.2l-0.2-0.2l-0.2-0.2L70.9,19l-0.2-0.2l-0.2-0.2l-0.2-0.2L69.9,18h-0.7L69,18.3z M48.3,18.5l-0.2,0.2L47.9,19l-0.2,0.2
					l-0.2,0.2l-0.2,0.2l-0.2,0.2l-0.2,0.2l-0.2,0.2l-0.2,0.2L46,20.9l-0.2,0.2l-0.2,0.2l-0.2,0.2L45,21.8l-0.2,0.2l-0.2,0.2
					l-0.2,0.2l-0.2,0.2L43.8,23l-0.2,0.2l-0.2,0.2l-0.2,0.2L42.9,24l-0.2,0.2l-0.2,0.2l-0.2,0.2l-0.2,0.2l-0.2,0.2l-0.2,0.2
					l-0.2,0.2L41,25.8l-0.2,0.2l-0.2,0.2l-0.2,0.2L40,26.8L39.8,27l-0.2,0.2l-0.2,0.2l-0.2,0.2L38.8,28l-0.2,0.2l-0.2,0.2l-0.2,0.2
					l-0.2,0.2l-0.2,0.2l-0.2,0.2l-0.2,0.2l-0.2,0.2l-0.2,0.2l-0.2,0.2l-0.2,0.2L36,30.8l-0.2,0.2l-0.2,0.2l-0.2,0.2L35,31.8L34.8,32
					l-0.2,0.2l-0.2,0.2l-0.2,0.2L33.9,33l-0.2,0.2l-0.2,0.2l-0.2,0.2l-0.2,0.2l-0.2,0.2l-0.2,0.2l-0.2,0.2L32,34.9l-0.2,0.2
					l-0.2,0.2l-0.2,0.2L31,35.8l-0.2,0.2l-0.2,0.2l-0.2,0.2l-0.2,0.2L29.8,37l-0.2,0.2l-0.2,0.2l-0.2,0.2L28.9,38l-0.2,0.2v0.2h20.2
					V18.3h-0.2L48.3,18.5z M49.8,38.4h19.9v-0.2L69.5,38l-0.2-0.2L69,37.5l-0.2-0.2L68.5,37l-0.2-0.2L68,36.5l-0.2-0.2l-0.2-0.2
					l-0.2-0.2l-0.2-0.2l-0.2-0.2l-0.2-0.2l-0.2-0.2l-0.2-0.2l-0.2-0.2l-0.2-0.2l-0.2-0.2l-0.2-0.2L65,33.4l-0.2-0.2L64.5,33
					l-0.2-0.2L64,32.5l-0.2-0.2L63.5,32l-0.2-0.2l-0.2-0.2l-0.2-0.2l-0.2-0.2l-0.2-0.2l-0.2-0.2l-0.2-0.2l-0.2-0.2l-0.2-0.2
					l-0.2-0.2l-0.2-0.2l-0.2-0.2l-0.2-0.2l-0.2-0.2L60,28.5l-0.2-0.2L59.5,28l-0.2-0.2L59,27.5l-0.2-0.2L58.6,27l-0.2-0.2l-0.2-0.2
					l-0.2-0.2l-0.2-0.2l-0.2-0.2l-0.2-0.2l-0.2-0.2l-0.2-0.2l-0.2-0.2l-0.2-0.2l-0.2-0.2l-0.2-0.2L55.5,24l-0.2-0.2L55,23.5
					l-0.2-0.2L54.5,23l-0.2-0.2L54,22.5l-0.2-0.2l-0.2-0.2l-0.2-0.2l-0.2-0.2l-0.2-0.2l-0.2-0.2l-0.2-0.2l-0.2-0.2l-0.2-0.2
					l-0.2-0.2l-0.2-0.2l-0.2-0.2L51,19.4l-0.2-0.2L50.5,19l-0.2-0.2L50,18.5h-0.2V38.4z"/>
			</defs>
			<clipPath id="SVGID_2_">
				<use xlink:href="#SVGID_1_"  style="overflow:visible;"/>
			</clipPath>
			<g class="st2">
				
					<image style="overflow:visible;" width="997" height="997" xlink:href="3E9C89C04377A035.png"  transform="matrix(0.1053 0 0 0.1053 15.9973 -0.2473)">
				</image>
			</g>
		</g>
	</g>
</g>
</svg>
